<svg id="f25f2c9a-658e-482b-9c96-3970e4764da7" data-name="Layer 1" xmlns="http://www.w3.org/2000/svg" xmlns:xlink="http://www.w3.org/1999/xlink" width="33" height="33" viewBox="0 0 33 33"><defs><style>.dd696603-93a6-4b67-b8c7-d65c0c8547fb,.e25fa019-2bb9-427c-aebb-5314d98bdff5{fill:none;}.\34 63df4af-26c0-4319-ace2-6fddaf9711e9{clip-path:url(#894bb73b-1bce-493e-8b76-cbf595341928);}.dc4af0c9-09cd-4f79-8a6c-024451b54671{clip-path:url(#34b6eca4-b0e8-40eb-af35-97dc3b0e6019);}.\34 ffc44c5-bab3-4501-8235-65c5f61d7f17{clip-path:url(#3f21621b-fce0-4cf7-8673-b999de40c90e);}.\30 5f178e6-e1f5-48d6-8f88-db6592568845{clip-path:url(#1d6be917-6366-46c5-b903-ff95d31e123e);}.c378aa9b-6b37-433c-9603-a7091d83b999{fill:#fff;}.\33 41701d0-96b1-4f4e-823f-f34e4bdba58e{fill:#424242;}.dd696603-93a6-4b67-b8c7-d65c0c8547fb{stroke:#424242;stroke-miterlimit:10;}</style><clipPath id="894bb73b-1bce-493e-8b76-cbf595341928"><rect class="e25fa019-2bb9-427c-aebb-5314d98bdff5" x="339.09" y="-669.05" width="375" height="608.19"/></clipPath><clipPath id="34b6eca4-b0e8-40eb-af35-97dc3b0e6019"><rect class="e25fa019-2bb9-427c-aebb-5314d98bdff5" x="-252.97" y="-669.05" width="1084.44" height="610"/></clipPath><clipPath id="3f21621b-fce0-4cf7-8673-b999de40c90e"><rect class="e25fa019-2bb9-427c-aebb-5314d98bdff5" x="735.09" y="-669.05" width="375" height="608.19"/></clipPath><clipPath id="1d6be917-6366-46c5-b903-ff95d31e123e"><rect class="e25fa019-2bb9-427c-aebb-5314d98bdff5" x="111.77" y="-669.05" width="1081.56" height="608.37" transform="translate(1305.1 -729.72) rotate(-180)"/></clipPath></defs><title>Artboard 27 copy 2</title><g class="463df4af-26c0-4319-ace2-6fddaf9711e9"><g class="dc4af0c9-09cd-4f79-8a6c-024451b54671"><image width="5841" height="3894" transform="translate(-252.97 -781.07) scale(0.22)" xlink:href="../DSC08484.jpg"/></g></g><g class="4ffc44c5-bab3-4501-8235-65c5f61d7f17"><g class="05f178e6-e1f5-48d6-8f88-db6592568845"><image width="4579" height="3033" transform="matrix(-0.33, 0, 0, 0.33, 1496.95, -776.65)" xlink:href="../DSC_2754.jpg"/></g></g><circle class="c378aa9b-6b37-433c-9603-a7091d83b999" cx="16.5" cy="16.5" r="15"/><path class="341701d0-96b1-4f4e-823f-f34e4bdba58e" d="M16.5,2A14.5,14.5,0,1,1,2,16.5,14.51,14.51,0,0,1,16.5,2m0-1A15.5,15.5,0,1,0,32,16.5,15.5,15.5,0,0,0,16.5,1Z"/><polyline class="dd696603-93a6-4b67-b8c7-d65c0c8547fb" points="9.6 15.94 16.5 9.04 23.4 15.94"/><line class="dd696603-93a6-4b67-b8c7-d65c0c8547fb" x1="16.5" y1="9.04" x2="16.5" y2="22.83"/></svg>