<svg id="7e3c8ebe-4570-4b38-bc02-fac47bad8cc1" data-name="Layer 1" xmlns="http://www.w3.org/2000/svg" xmlns:xlink="http://www.w3.org/1999/xlink" width="33" height="33" viewBox="0 0 33 33"><defs><style>.\39 a8c259a-730f-49fb-a915-a060a5f75f3b,.f9bfa195-2284-4675-93bd-277503047d11{fill:none;}.\39 19cc358-6cd9-4fcc-b76c-5c16f608e2e1{clip-path:url(#18c28822-d041-49b7-9a08-304ca13b6153);}.bb24a02c-f5fc-4e9d-a462-66687d67fa7e{clip-path:url(#46506884-446a-440f-8db6-06e82ff7c927);}.\37 d352bd7-5a26-4bb5-9ae5-7d41fcfa8a9f{clip-path:url(#68425ab9-f3d4-43f4-859c-254a6d191d8d);}.\30 a257807-1c49-41c8-857c-1bb3404069aa{clip-path:url(#08d01786-5cd2-46dc-ad00-a867348e2ab4);}.\35 4702ec0-bbfa-4ca3-b374-663b08acbd64{fill:#424242;}.f9bfa195-2284-4675-93bd-277503047d11{stroke:#424242;stroke-miterlimit:10;}</style><clipPath id="18c28822-d041-49b7-9a08-304ca13b6153"><rect class="9a8c259a-730f-49fb-a915-a060a5f75f3b" x="-930.55" y="70.01" width="375" height="608.19"/></clipPath><clipPath id="46506884-446a-440f-8db6-06e82ff7c927"><rect class="9a8c259a-730f-49fb-a915-a060a5f75f3b" x="-1047.76" y="67.3" width="1086.04" height="610.9"/></clipPath><clipPath id="68425ab9-f3d4-43f4-859c-254a6d191d8d"><rect class="9a8c259a-730f-49fb-a915-a060a5f75f3b" x="-317.5" y="70.01" width="375" height="608.19"/></clipPath><clipPath id="08d01786-5cd2-46dc-ad00-a867348e2ab4"><rect class="9a8c259a-730f-49fb-a915-a060a5f75f3b" x="-434.71" y="67.3" width="1086.04" height="610.9"/></clipPath><image id="4285b300-4574-4685-8ea7-cfd11c508003" width="4869" height="3246" xlink:href="../About us_Final/Links/Company-trip_2015_5 2.jpg"/></defs><title>cancel-button</title><g class="919cc358-6cd9-4fcc-b76c-5c16f608e2e1"><g class="bb24a02c-f5fc-4e9d-a462-66687d67fa7e"><use transform="translate(-1047.74 10.76) scale(0.22)" xlink:href="#4285b300-4574-4685-8ea7-cfd11c508003"/></g></g><g class="7d352bd7-5a26-4bb5-9ae5-7d41fcfa8a9f"><g class="0a257807-1c49-41c8-857c-1bb3404069aa"><use transform="translate(-434.69 10.76) scale(0.22)" xlink:href="#4285b300-4574-4685-8ea7-cfd11c508003"/></g></g><g id="02a51611-ee54-477d-844e-0b86d15ed249" data-name="Layer 1-2"><path class="54702ec0-bbfa-4ca3-b374-663b08acbd64" d="M16.5,1.9A14.6,14.6,0,1,1,1.9,16.5h0A14.62,14.62,0,0,1,16.5,1.9m0-.9A15.5,15.5,0,1,0,32,16.5,15.5,15.5,0,0,0,16.5,1Z"/></g><line class="f9bfa195-2284-4675-93bd-277503047d11" x1="24.74" y1="8.26" x2="8.26" y2="24.74"/><line class="f9bfa195-2284-4675-93bd-277503047d11" x1="8.26" y1="8.26" x2="24.74" y2="24.74"/></svg>