<?xml version="1.0" encoding="utf-8"?>
<!-- Generator: Adobe Illustrator 22.0.1, SVG Export Plug-In . SVG Version: 6.00 Build 0)  -->
<svg version="1.1" id="Layer_1" xmlns="http://www.w3.org/2000/svg" xmlns:xlink="http://www.w3.org/1999/xlink" x="0px" y="0px"
	 viewBox="0 0 36.6 36.6" style="enable-background:new 0 0 36.6 36.6;" xml:space="preserve">
<style type="text/css">
	.st0{fill:#424242;}
	.st1{fill:none;stroke:#424242;stroke-miterlimit:10;}
</style>
<g id="Layer_2_1_">
	<g id="Layer_1-2">
		<path class="st0" d="M18.3,2c9,0,16.3,7.3,16.3,16.3s-7.3,16.3-16.3,16.3S2,27.3,2,18.3C2,9.3,9.3,2,18.3,2 M18.3,1
			C8.7,1,1,8.7,1,18.3s7.7,17.3,17.3,17.3s17.3-7.7,17.3-17.3l0,0C35.6,8.7,27.9,1,18.3,1z"/>
		<path class="st0" d="M28.2,28.1c-0.2-0.4-0.4-0.8-0.5-1.3c-0.2-0.6-0.4-1.2-0.4-1.8c0-0.1,0-0.2,0.1-0.2c0.9-1.2,1.2-2.8,0.7-4.2
			c-0.3-1-1-1.9-1.9-2.5c-1.9-1.3-4.2-1.6-6.4-0.8c-1.1,0.4-2.1,1.1-2.8,2c-0.8,1-1.2,2.4-0.9,3.6c0.2,1.1,0.8,2.1,1.6,2.8
			c1.2,1,2.8,1.6,4.4,1.6c0.7,0,1.3-0.1,2-0.3c0.1,0,0.1,0,0.2,0c0.2,0.1,0.4,0.2,0.5,0.3c0.7,0.3,1.5,0.5,2.2,0.7
			C27.3,28,27.8,28.1,28.2,28.1C28.2,28.1,28.2,28.1,28.2,28.1z M21.7,21.9c0,1.1-0.8,2-1.9,2.3c-0.2,0-0.1,0-0.2-0.1
			c-0.1-0.1-0.1-0.1-0.1-0.2c0-0.1,0-0.1,0-0.1c0.4-0.2,0.7-0.6,0.8-1v0c0-0.2,0-0.2-0.1-0.2h-0.7c-0.1,0-0.1,0-0.1-0.1v-1.9
			c0-0.1,0-0.1,0.1-0.1h2.1c0.1,0,0.1,0,0.1,0.1L21.7,21.9z M24.9,21.9c0,1.1-0.8,2.1-1.9,2.3c-0.1,0-0.1,0-0.2-0.1
			c0-0.1-0.1-0.2-0.1-0.3c0,0,0-0.1,0.1-0.1c0.3-0.1,0.6-0.4,0.7-0.7c0.1-0.1,0.1-0.3,0.1-0.4c0,0,0-0.1-0.1-0.1h-0.8
			c-0.1,0-0.1,0-0.1-0.1v-2c0-0.1,0-0.1,0.1-0.1h2.1c0.1,0,0.1,0,0.1,0.1V21.9z"/>
		<path class="st1" d="M14.3,22.9c-1.6,1.2-5.7,1.8-5.7,1.8s0.9-1.9,1.2-2.9c0.2-0.6,0.2-1.1,0.2-1.7c0-0.1,0-0.1,0-0.2
			c-1.9-2.3-1.9-5.6-0.1-7.9c0.9-1.2,2.2-2.1,3.6-2.7c0.9-0.4,1.8-0.6,2.8-0.7c1.9-0.2,3.7,0.2,5.4,1c1.2,0.6,2.3,1.5,3.1,2.6
			c0.7,1.1,1.2,2.4,1.2,3.8"/>
		<path class="st0" d="M14.8,16.3h-1.1c-0.1,0-0.1,0-0.1-0.1v-1.5c0-1.2,0.9-2.2,2-2.4c0.1,0,0.1,0,0.1,0s0.1,0.3,0.2,0.4
			s0,0.1-0.1,0.1c-0.4,0.2-0.7,0.5-0.8,0.9c0,0.1,0,0.2,0,0.3c0,0.1,0,0.1,0.1,0.1h0.8c0.1,0,0.1,0,0.1,0.1v2.1c0,0.1,0,0.1-0.1,0.1
			L14.8,16.3z"/>
		<path class="st0" d="M18.1,16.3h-1.1c-0.1,0-0.1,0-0.1-0.1v-1.5c0-1.1,0.8-2.1,1.8-2.3c0.3-0.1,0.3-0.1,0.4,0.2
			c0,0.1,0.1,0.1,0.1,0.2s0,0.1,0,0.1c-0.2,0.1-0.4,0.2-0.5,0.4c-0.2,0.2-0.3,0.5-0.4,0.8c0,0.1,0,0.1,0.1,0.1h0.8
			c0.1,0,0.1,0,0.1,0.1v2.1c0,0.1,0,0.1-0.1,0.1L18.1,16.3z"/>
	</g>
</g>
</svg>
