<svg id="7d15cc92-7d85-4078-a3a0-dc24dfb3b03c" data-name="Layer 1" xmlns="http://www.w3.org/2000/svg" xmlns:xlink="http://www.w3.org/1999/xlink" width="33" height="33" viewBox="0 0 33 33"><defs><style>.\32 3af7a50-3907-439a-8ecf-81299e4d9e2c{fill:none;}.\30 c824d82-64d9-420e-8970-2801e6617f42{clip-path:url(#52d97325-6b75-403f-b1b9-bddf5b36faae);}.\30 8edb782-3d19-4d6d-bf71-42187bf1b484{clip-path:url(#004dacbf-a946-4a28-8567-c02c0e6389f4);}.e9930dd3-6dd6-4b83-aa14-9eaf1a3e5e9a{clip-path:url(#5043a7a7-8522-4a0b-b0ed-eb7ea64afb5f);}.fe509864-12f0-4001-bb4c-c65883ddca20{clip-path:url(#54b5a09b-1ec1-4b87-a8c9-79fc79aa9f1c);}.ae68e48b-d58e-41ab-b50f-1ed2d4157b89{fill:#424242;}</style><clipPath id="52d97325-6b75-403f-b1b9-bddf5b36faae"><rect class="23af7a50-3907-439a-8ecf-81299e4d9e2c" x="385.42" y="-669.05" width="375" height="608.19"/></clipPath><clipPath id="004dacbf-a946-4a28-8567-c02c0e6389f4"><rect class="23af7a50-3907-439a-8ecf-81299e4d9e2c" x="-206.64" y="-669.05" width="1084.44" height="610"/></clipPath><clipPath id="5043a7a7-8522-4a0b-b0ed-eb7ea64afb5f"><rect class="23af7a50-3907-439a-8ecf-81299e4d9e2c" x="781.42" y="-669.05" width="375" height="608.19"/></clipPath><clipPath id="54b5a09b-1ec1-4b87-a8c9-79fc79aa9f1c"><rect class="23af7a50-3907-439a-8ecf-81299e4d9e2c" x="158.1" y="-669.05" width="1081.56" height="608.37" transform="translate(1397.76 -729.72) rotate(-180)"/></clipPath></defs><title>Artboard 27 copy</title><g class="0c824d82-64d9-420e-8970-2801e6617f42"><g class="08edb782-3d19-4d6d-bf71-42187bf1b484"><image width="5841" height="3894" transform="translate(-206.64 -781.07) scale(0.22)" xlink:href="../DSC08484.jpg"/></g></g><g class="e9930dd3-6dd6-4b83-aa14-9eaf1a3e5e9a"><g class="fe509864-12f0-4001-bb4c-c65883ddca20"><image width="4579" height="3033" transform="matrix(-0.33, 0, 0, 0.33, 1543.28, -776.65)" xlink:href="../DSC_2754.jpg"/></g></g><g id="ae4b6adc-724b-43a4-9472-ef639e515afb" data-name="Layer 2"><g id="156d5e00-9c4e-4bf8-8c02-c2a50d492db2" data-name="Layer 1-2"><path class="ae68e48b-d58e-41ab-b50f-1ed2d4157b89" d="M16.5,2A14.5,14.5,0,1,1,2,16.5,14.51,14.51,0,0,1,16.5,2m0-1A15.5,15.5,0,1,0,32,16.5,15.5,15.5,0,0,0,16.5,1Z"/><rect class="ae68e48b-d58e-41ab-b50f-1ed2d4157b89" x="17.88" y="8.26" width="6.87" height="6.87"/><rect class="ae68e48b-d58e-41ab-b50f-1ed2d4157b89" x="17.88" y="17.88" width="6.87" height="6.87"/><rect class="ae68e48b-d58e-41ab-b50f-1ed2d4157b89" x="8.26" y="17.88" width="6.87" height="6.87"/><rect class="ae68e48b-d58e-41ab-b50f-1ed2d4157b89" x="8.26" y="8.26" width="6.87" height="6.87"/></g></g></svg>